[Header]
FileType HTR
DataType HTRS
FileVersion 1
NumSegments 22
NumFrames 8
DataFrameRate 24
EulerRotationOrder ZYX
CalibrationUnits mm
RotationUnits Degrees
GlobalAxisofGravity Y
BoneLengthAxis Y
ScaleFactor 1.0
[SegmentNames&Hierarchy]
reference	GLOBAL
Hips	reference
Spine	Hips
Spine1	Spine
Neck	Spine1
Head	Neck
LeftShoulder	Spine1
LeftArm	LeftShoulder
LeftForeArm	LeftArm
LeftHand	LeftForeArm
RightShoulder	Spine1
RightArm	RightShoulder
RightForeArm	RightArm
RightHand	RightForeArm
LeftUpLeg	Hips
LeftLeg	LeftUpLeg
LeftFoot	LeftLeg
LeftToeBase	LeftFoot
RightUpLeg	Hips
RightLeg	RightUpLeg
RightFoot	RightLeg
RightToeBase	RightFoot
[BasePosition]
reference	0	0	0	0	0	0	1
Hips	0	0	0	0	0	0	1
Spine	0	0	0	0	-0	90	1
Spine1	0	0	0	0	0	0	1
Neck	0	0	0	-7.352430803	-7.352430803	90	1
Head	0	0	0	0	-0	90	1
LeftShoulder	0	0	0	0	0	0	1
LeftArm	0	0	0	0	0	0	1
LeftForeArm	0	0	0	0	0	0	1
LeftHand	0	0	0	0	0	0	1
RightShoulder	0	0	0	0	-0	180	1
RightArm	0	0	0	0	-0	180	1
RightForeArm	0	0	0	0	-0	180	1
RightHand	0	0	0	0	-0	180	1
LeftUpLeg	0	0	0	0	-0	-90	1
LeftLeg	0	0	0	0	-0	-90	1
LeftFoot	0	0	0	66.57150701	-66.57150701	-90	1
LeftToeBase	0	0	0	0	-90	0	1
RightUpLeg	0	0	0	0	-0	-90	1
RightLeg	0	0	0	0	-0	-90	1
RightFoot	0	0	0	66.57150701	-66.57150701	-90	1
RightToeBase	0	0	0	0	-90	0	1
[reference]
1	0	0	0	0	-0	0	1.0
2	0	0	0	0	-0	0	1.0
3	0	0	0	0	-0	0	1.0
4	0	0	0	0	-0	0	1.0
5	0	0	0	0	-0	0	1.0
6	0	0	0	0	-0	0	1.0
7	0	0	0	0	-0	0	1.0
8	0	0	0	0	-0	0	1.0
[Hips]
1	9.161940575	8.784359932	1.365479946	6.952819824	-103.9400177	-3.485717773	1.0
2	9.161940575	8.784359932	1.362999201	7.660857677	-103.7066345	-4.085020542	1.0
3	9.161940575	8.784359932	1.354150057	8.269967079	-103.5819702	-4.44200182	1.0
4	9.161940575	8.784359932	1.345313072	9.001060486	-103.5090637	-4.938481331	1.0
5	9.161940575	8.784359932	1.33648169	9.386798859	-103.5357742	-5.20052433	1.0
6	9.161940575	8.784359932	1.327649832	14.69612789	-103.9881439	-8.932314873	1.0
7	9.161940575	8.784359932	1.318811297	15.22305298	-104.1269836	-9.24407959	1.0
8	9.161940575	8.784359932	1.309959769	15.53089046	-104.2169189	-9.221060753	1.0
[Spine]
1	0	0.7478299737	0	-13.54924488	0.4299927354	-92.19192505	1.0
2	0	0.7478299737	0	-13.10733795	-0.1105086654	-91.71379852	1.0
3	0	0.7478299737	0	-13.43480873	-0.2850168943	-91.59643555	1.0
4	0	0.7478299737	0	-13.60108566	-0.4839968681	-91.49034119	1.0
5	0	0.7478299737	0	-13.61991978	-0.6188652515	-91.3992691	1.0
6	0	0.7478299737	0	-13.74123955	-0.7258014679	-91.36553955	1.0
7	0	0.7478299737	0	-15.1140213	-0.6282109022	-91.27870941	1.0
8	0	0.7478299737	0	-15.259305	-0.7849650979	-91.25695801	1.0
[Spine1]
1	0	2.049309969	0	10.40430832	0.2255544513	0.05086140707	1.0
2	0	2.049309969	0	9.776185989	0.141808778	-0.5737344623	1.0
3	0	2.049309969	0	8.957971573	0.03646979108	-0.8581566811	1.0
4	0	2.049309969	0	8.727771759	-0.02946307138	-0.9657219648	1.0
5	0	2.049309969	0	8.733262062	-0.06892328709	-1.072209954	1.0
6	0	2.049309969	0	8.364882469	0.03107681312	-2.213329077	1.0
7	0	2.049309969	0	8.293093681	-0.003976974171	-2.170152664	1.0
8	0	2.049309969	0	8.188606262	-0.03926956654	-2.226235628	1.0
[Neck]
1	0	2.231709957	0	3.039572001	6.673814297	-86.92216492	1.0
2	0	2.231709957	0	3.371144772	7.03723526	-86.1427002	1.0
3	0	2.231709957	0	3.599823236	7.149784088	-86.52279663	1.0
4	0	2.231709957	0	3.658159494	7.24160862	-86.62507629	1.0
5	0	2.231709957	0	3.303235292	7.297534943	-86.57839203	1.0
6	0	2.231709957	0	3.243701458	7.389696121	-86.22126007	1.0
7	0	2.231709957	0	3.304650545	7.427553654	-86.40950012	1.0
8	0	2.231709957	0	3.473889112	7.462059975	-86.49156189	1.0
[Head]
1	0	1.413589954	0.1823999882	-11.20689011	-0.334092766	-92.24015808	1.0
2	0	1.413589954	0.1823999882	-10.76942825	0.1316531301	-92.54180908	1.0
3	0	1.413589954	0.1823999882	-10.74277115	0.2056381106	-92.21401978	1.0
4	0	1.413589954	0.1823999882	-10.65677071	0.2850364447	-92.03166199	1.0
5	0	1.413589954	0.1823999882	-10.54284382	0.337716043	-92.04665375	1.0
6	0	1.413589954	0.1823999882	-10.63503838	0.4683203697	-92.27545166	1.0
7	0	1.413589954	0.1823999882	-10.64857483	0.4864025712	-92.16531372	1.0
8	0	1.413589954	0.1823999882	-10.59244537	0.516795218	-92.08302307	1.0
[LeftShoulder]
1	0.3649300039	1.825889945	-0.04271000251	-10.42001343	-8.538100243	0.772426486	1.0
2	0.3649300039	1.825889945	-0.04271000251	-10.35958576	-7.922429085	2.035841227	1.0
3	0.3649300039	1.825889945	-0.04271000251	-10.19145107	-7.726342678	1.751428366	1.0
4	0.3649300039	1.825889945	-0.04271000251	-10.23784447	-7.738970757	1.853430867	1.0
5	0.3649300039	1.825889945	-0.04271000251	-10.40985012	-7.771798134	1.768671751	1.0
6	0.3649300039	1.825889945	-0.04271000251	-10.49336624	-7.82217598	2.014266014	1.0
7	0.3649300039	1.825889945	-0.04271000251	-10.14499569	-8.069039345	1.627885103	1.0
8	0.3649300039	1.825889945	-0.04271000251	-10.22899246	-8.228539467	1.63544476	1.0
[LeftArm]
1	1.24003005	0	0	38.55142212	8.251789093	-78.01209259	1.0
2	1.24003005	0	0	38.84883118	7.911783695	-79.29475403	1.0
3	1.24003005	0	0	39.95177078	7.935394764	-79.28012848	1.0
4	1.24003005	0	0	40.72867203	7.813055038	-79.73606873	1.0
5	1.24003005	0	0	41.52867508	7.740940094	-79.96640015	1.0
6	1.24003005	0	0	42.28396225	7.784335136	-80.4229126	1.0
7	1.24003005	0	0	42.85218048	7.567158222	-80.32617188	1.0
8	1.24003005	0	0	42.52601242	7.801230431	-80.37059021	1.0
[LeftForeArm]
1	2.847419977	0	0	-12.0043602	-14.30882645	-2.859275579	1.0
2	2.847419977	0	0	-12.19485474	-14.60324287	-2.737529755	1.0
3	2.847419977	0	0	-12.40837955	-14.97858238	-2.537591934	1.0
4	2.847419977	0	0	-12.70151997	-14.97804737	-2.383067846	1.0
5	2.847419977	0	0	-12.898633	-14.94920731	-2.335899353	1.0
6	2.847419977	0	0	-13.02763462	-14.8645792	-2.289160252	1.0
7	2.847419977	0	0	-12.92113495	-14.86350346	-2.488220453	1.0
8	2.847419977	0	0	-12.50588608	-14.80395317	-3.044220448	1.0
[LeftHand]
1	2.258270025	0	0	-12.3322897	-4.885673523	-0.7205264568	1.0
2	2.258270025	0	0	-12.56421661	-4.854645252	0.443675518	1.0
3	2.258270025	0	0	-12.77051067	-3.710561514	0.8875906467	1.0
4	2.258270025	0	0	-13.03324127	-3.940439224	0.5481943488	1.0
5	2.258270025	0	0	-13.21712399	-4.196798325	0.3359656334	1.0
6	2.258270025	0	0	-13.32980537	-4.104276657	0.1066022143	1.0
7	2.258270025	0	0	-13.24292564	-3.846396923	-0.07451785356	1.0
8	2.258270025	0	0	-12.88455105	-3.839508533	-0.4938370287	1.0
[RightShoulder]
1	-0.3646599948	1.825889945	-0.04271000251	-7.689687252	7.09734726	179.2794647	1.0
2	-0.3646599948	1.825889945	-0.04271000251	-7.394269466	7.47816658	179.422699	1.0
3	-0.3646599948	1.825889945	-0.04271000251	-7.422067642	7.490350723	179.3951416	1.0
4	-0.3646599948	1.825889945	-0.04271000251	-7.434175014	7.554429531	179.4570923	1.0
5	-0.3646599948	1.825889945	-0.04271000251	-7.554291248	7.390397072	179.4208374	1.0
6	-0.3646599948	1.825889945	-0.04271000251	-7.599824905	7.472096443	179.4787598	1.0
7	-0.3646599948	1.825889945	-0.04271000251	-7.535354137	7.467612267	179.4619446	1.0
8	-0.3646599948	1.825889945	-0.04271000251	-7.56740284	7.369682312	179.4190521	1.0
[RightArm]
1	-1.24003005	0	0	42.16411972	-5.623286247	-98.91305542	1.0
2	-1.24003005	0	0	41.81016922	-5.930869102	-98.66708374	1.0
3	-1.24003005	0	0	41.15641403	-6.09236145	-98.9201355	1.0
4	-1.24003005	0	0	41.59794998	-6.062514305	-98.89596558	1.0
5	-1.24003005	0	0	42.2481308	-5.84292078	-98.85765839	1.0
6	-1.24003005	0	0	42.7450943	-5.770477772	-98.83391571	1.0
7	-1.24003005	0	0	43.09464645	-5.540025234	-98.84228516	1.0
8	-1.24003005	0	0	43.28262711	-5.420390129	-98.75377655	1.0
[RightForeArm]
1	-2.847419977	0	0	0.5271705389	13.97657013	179.648468	1.0
2	-2.847419977	0	0	0.3427624702	13.49046135	179.9653473	1.0
3	-2.847419977	0	0	0.5842728019	13.29190826	180.3510742	1.0
4	-2.847419977	0	0	0.4841684103	12.9246254	180.1217194	1.0
5	-2.847419977	0	0	0.3134790659	12.94834137	179.7986298	1.0
6	-2.847419977	0	0	0.5149042606	13.21451283	179.4824829	1.0
7	-2.847419977	0	0	0.08640541136	13.67462826	179.0192261	1.0
8	-2.847419977	0	0	-0.01049044263	14.06610489	178.8072205	1.0
[RightHand]
1	-2.258270025	0	0	0.4224865139	5.304751396	176.8118591	1.0
2	-2.258270025	0	0	0.183962211	6.139906406	176.9690094	1.0
3	-2.258270025	0	0	0.3913711309	5.960898399	177.096283	1.0
4	-2.258270025	0	0	0.3317148089	5.541053772	177.133606	1.0
5	-2.258270025	0	0	0.1911993623	5.294429302	176.8626404	1.0
6	-2.258270025	0	0	0.3958878219	5.787920952	176.4620209	1.0
7	-2.258270025	0	0	0.0100553818	5.906083107	176.2387085	1.0
8	-2.258270025	0	0	-0.0671191439	6.082590103	176.1671448	1.0
[LeftUpLeg]
1	0.9119900465	0	0	-1.220374823	-5.356405735	89.9393158	1.0
2	0.9119900465	0	0	-0.7949823141	-5.253928185	89.92987061	1.0
3	0.9119900465	0	0	-0.5423313379	-6.033220291	89.98092651	1.0
4	0.9119900465	0	0	-0.5116251707	-6.157444	89.96809387	1.0
5	0.9119900465	0	0	-0.5141993761	-5.662142754	89.98605347	1.0
6	0.9119900465	0	0	-0.819372654	-5.247461319	89.72753906	1.0
7	0.9119900465	0	0	-2.436443806	-5.892373085	88.57458496	1.0
8	0.9119900465	0	0	-2.251478434	-5.972062588	88.75057983	1.0
[LeftLeg]
1	0	-4.371409893	0	6.953648567	-1.376484156	87.72374725	1.0
2	0	-4.371409893	0	6.01577282	-2.407452583	87.64448547	1.0
3	0	-4.371409893	0	4.908823013	-1.900809407	87.68295288	1.0
4	0	-4.371409893	0	4.412481308	-1.857825398	87.70920563	1.0
5	0	-4.371409893	0	4.233129501	-1.751831651	87.78500366	1.0
6	0	-4.371409893	0	4.039943218	-2.280723333	87.84062195	1.0
7	0	-4.371409893	0	3.56510067	-0.5085729957	88.4696579	1.0
8	0	-4.371409893	0	2.976264	-1.21803546	88.43305206	1.0
[LeftFoot]
1	0	-3.918009996	0	-88.84135437	108.6721649	-44.96354675	1.0
2	0	-3.918009996	0	-85.95994568	108.9658661	-42.30647659	1.0
3	0	-3.918009996	0	-84.85256958	109.0018082	-41.53000259	1.0
4	0	-3.918009996	0	-84.88414001	108.9690857	-41.69395447	1.0
5	0	-3.918009996	0	-86.70890045	108.7676086	-43.74809265	1.0
6	0	-3.918009996	0	-85.49124146	109.002121	-42.94825363	1.0
7	0	-3.918009996	0	-85.04971313	108.6042328	-44.75235748	1.0
8	0	-3.918009996	0	-82.69854736	108.8708038	-42.35942078	1.0
[LeftToeBase]
1	0	-0.5927900076	1.367989898	0	0	0	1.0
2	0	-0.5927900076	1.367989898	0	0	0	1.0
3	0	-0.5927900076	1.367989898	0	0	0	1.0
4	0	-0.5927900076	1.367989898	0	0	0	1.0
5	0	-0.5927900076	1.367989898	0	0	0	1.0
6	0	-0.5927900076	1.367989898	0	0	0	1.0
7	0	-0.5927900076	1.367989898	0	0	0	1.0
8	0	-0.5927900076	1.367989898	0	0	0	1.0
[RightUpLeg]
1	-0.9119900465	0	0	4.391177654	-19.59424973	93.6003952	1.0
2	-0.9119900465	0	0	4.538466454	-19.44509125	93.57601929	1.0
3	-0.9119900465	0	0	4.479732513	-18.58769608	93.66896057	1.0
4	-0.9119900465	0	0	4.419215202	-18.15277481	93.68158722	1.0
5	-0.9119900465	0	0	4.286355972	-17.70532799	93.67928314	1.0
6	-0.9119900465	0	0	3.915429592	-18.21530724	93.57796478	1.0
7	-0.9119900465	0	0	2.251690149	-17.99374962	92.83908081	1.0
8	-0.9119900465	0	0	2.917140722	-17.52228928	92.81342316	1.0
[RightLeg]
1	0	-4.371409893	0	2.584656715	0.1578332633	88.36737061	1.0
2	0	-4.371409893	0	2.284091949	0.08484873176	88.51051331	1.0
3	0	-4.371409893	0	2.003418207	-0.1154689789	88.65850067	1.0
4	0	-4.371409893	0	1.770073533	-0.3593667448	88.73448181	1.0
5	0	-4.371409893	0	1.976148605	-0.7530314326	88.98493195	1.0
6	0	-4.371409893	0	1.968580127	-0.9278368354	88.92701721	1.0
7	0	-4.371409893	0	1.381580114	0.118231982	89.60614014	1.0
8	0	-4.371409893	0	-0.430421263	0.1054527909	90.2046051	1.0
[RightFoot]
1	0	-3.918009996	0	52.28445435	63.52277756	92.33940125	1.0
2	0	-3.918009996	0	51.26431274	63.88205719	90.93728638	1.0
3	0	-3.918009996	0	51.20860672	62.81401825	90.58911896	1.0
4	0	-3.918009996	0	51.87439728	62.06290436	91.17449951	1.0
5	0	-3.918009996	0	50.4305687	63.09423828	89.54296875	1.0
6	0	-3.918009996	0	50.38104248	65.66969299	88.53061676	1.0
7	0	-3.918009996	0	49.14716339	65.59244537	86.22312927	1.0
8	0	-3.918009996	0	48.77684784	66.00701904	84.69062042	1.0
[RightToeBase]
1	0	-0.5927900076	1.367989898	0	0	0	1.0
2	0	-0.5927900076	1.367989898	0	0	0	1.0
3	0	-0.5927900076	1.367989898	0	0	0	1.0
4	0	-0.5927900076	1.367989898	0	0	0	1.0
5	0	-0.5927900076	1.367989898	0	0	0	1.0
6	0	-0.5927900076	1.367989898	0	0	0	1.0
7	0	-0.5927900076	1.367989898	0	0	0	1.0
8	0	-0.5927900076	1.367989898	0	0	0	1.0
[EndOfFile]
